<?xml version="1.0" standalone="no"?>
<!DOCTYPE svg PUBLIC "-//W3C//DTD SVG 20010904//EN"
 "http://www.w3.org/TR/2001/REC-SVG-20010904/DTD/svg10.dtd">
<svg version="1.0" xmlns="http://www.w3.org/2000/svg"
 width="854.000000pt" height="147.000000pt" viewBox="0 0 854.000000 147.000000"
 preserveAspectRatio="xMidYMid meet">

<g transform="translate(0.000000,147.000000) scale(0.100000,-0.100000)"
fill="#000000" stroke="none">
<path d="M2938 1315 c-73 -27 -172 -110 -222 -188 -10 -14 -31 -29 -49 -33
-18 -3 -50 -16 -72 -27 l-40 -20 42 -14 c37 -13 42 -17 33 -34 -20 -36 43 -96
74 -70 12 10 17 4 28 -31 l15 -43 21 34 c11 19 24 50 27 70 5 29 18 44 62 76
98 70 172 181 173 258 0 34 -2 37 -27 36 -16 0 -45 -7 -65 -14z m58 -59 c-27
-88 -102 -170 -243 -264 -106 -72 -107 -51 -1 56 89 90 96 99 91 130 -7 46 12
65 58 59 32 -4 41 0 70 29 18 19 34 34 35 34 2 0 -3 -20 -10 -44z"/>
<path d="M2864 1206 c-3 -8 -4 -23 -1 -33 4 -15 5 -15 6 3 0 12 11 26 24 32
l22 11 -23 0 c-12 1 -25 -5 -28 -13z"/>
<path d="M2255 1111 c-161 -47 -272 -153 -325 -312 -18 -53 -21 -81 -18 -164
3 -86 8 -109 34 -165 87 -184 235 -280 432 -280 225 0 405 143 457 362 8 35
15 77 14 93 0 29 -1 29 -24 -15 -29 -58 -112 -135 -173 -163 -37 -17 -66 -22
-137 -22 -82 0 -97 3 -157 33 -75 37 -138 100 -171 172 -17 36 -21 66 -22 145
0 87 3 107 25 150 32 66 93 131 150 160 l45 24 -35 0 c-19 0 -62 -8 -95 -18z"/>
<path d="M1368 698 c-92 -222 -170 -411 -174 -421 -6 -16 0 -18 66 -15 l72 3
32 80 32 80 144 0 144 0 31 -80 31 -80 73 -3 c44 -2 72 1 69 7 -21 61 -344
831 -348 831 -3 0 -80 -181 -172 -402z m215 -20 c20 -51 39 -101 43 -110 6
-16 -2 -18 -86 -18 -84 0 -92 2 -86 18 35 95 81 202 86 202 4 0 23 -42 43 -92z"/>
<path d="M4945 1064 c-9 -22 -81 -194 -160 -384 -79 -190 -151 -362 -160 -382
l-15 -38 73 0 74 0 32 85 32 85 143 0 143 0 33 -85 33 -85 70 0 c61 0 69 2 65
18 -8 29 -331 806 -339 816 -4 5 -15 -9 -24 -30z m68 -401 l45 -113 -94 0 -94
0 19 48 c55 139 74 183 76 180 2 -2 23 -54 48 -115z"/>
<path d="M7075 1064 c-9 -22 -81 -194 -160 -384 -79 -190 -151 -362 -160 -382
l-15 -38 73 0 74 0 32 85 32 85 143 0 143 0 33 -85 33 -85 70 0 c61 0 69 2 65
18 -8 29 -331 806 -339 816 -4 5 -15 -9 -24 -30z m68 -401 l45 -113 -94 0 -94
0 13 33 c8 17 29 69 47 115 18 45 34 81 35 80 2 -2 23 -54 48 -115z"/>
<path d="M7550 682 l0 -422 65 0 65 0 2 208 3 207 123 -184 124 -183 55 83
c31 46 60 86 65 87 4 2 8 8 8 13 0 5 26 48 58 96 l57 86 3 -206 2 -207 65 0
65 0 0 422 c0 242 -4 418 -9 413 -5 -6 -86 -127 -181 -270 -95 -143 -176 -264
-180 -268 -4 -5 -87 110 -185 255 -98 145 -184 270 -191 278 -12 12 -14 -48
-14 -408z"/>
<path d="M286 1065 c-58 -21 -88 -46 -113 -95 -52 -101 -21 -171 146 -328 66
-62 123 -124 129 -140 13 -39 -3 -72 -48 -95 -46 -24 -93 -16 -142 24 l-39 31
-39 -27 c-65 -45 -67 -51 -34 -86 40 -43 117 -80 179 -86 119 -12 233 64 255
170 21 103 -6 152 -169 305 -128 120 -147 150 -115 183 32 32 74 34 115 6 l36
-25 44 35 c24 19 45 38 47 43 2 4 -16 24 -39 44 -65 55 -135 69 -213 41z"/>
<path d="M3748 1071 c-49 -16 -96 -51 -119 -88 -28 -44 -31 -133 -7 -179 9
-16 78 -91 152 -165 149 -147 156 -161 108 -209 -53 -52 -123 -47 -189 12
l-22 20 -50 -37 c-28 -20 -51 -40 -51 -45 0 -13 68 -68 112 -91 167 -85 378
41 355 212 -9 67 -39 110 -159 222 -157 147 -173 179 -107 212 38 20 50 19 92
-9 l36 -25 51 41 c50 39 50 41 33 60 -52 57 -167 91 -235 69z"/>
<path d="M710 880 c0 -104 0 -282 0 -395 0 -113 0 -209 0 -215 0 -6 27 -10 60
-10 l60 0 0 135 0 135 63 0 c147 1 232 39 284 128 25 42 28 56 28 142 0 108
-17 154 -79 208 -55 48 -118 62 -278 62 l-138 0 0 -190z m317 50 c47 -28 65
-61 65 -123 1 -63 -16 -102 -55 -131 -24 -18 -43 -21 -115 -21 l-87 0 -3 148
-3 147 83 0 c65 0 90 -4 115 -20z"/>
<path d="M2970 665 l0 -405 245 0 245 0 0 60 0 60 -180 0 -180 0 0 120 0 119
148 3 147 3 3 58 3 57 -151 0 -150 0 0 105 0 105 180 0 180 0 0 60 0 60 -245
0 -245 0 0 -405z"/>
<path d="M4100 1010 l0 -60 110 0 110 0 0 -345 0 -345 65 0 65 0 0 345 0 345
110 0 110 0 0 60 0 60 -285 0 -285 0 0 -60z"/>
<path d="M5662 1060 c-124 -26 -230 -111 -285 -228 -29 -61 -32 -75 -32 -167
0 -91 3 -106 31 -165 61 -128 161 -206 296 -231 84 -15 180 -1 258 39 l55 28
3 171 2 172 -67 3 c-38 2 -101 2 -141 0 l-73 -4 3 -56 3 -57 78 -3 77 -3 0
-68 c0 -68 0 -69 -32 -82 -18 -8 -62 -14 -98 -14 -80 1 -146 31 -200 92 -99
113 -90 277 22 378 89 80 206 96 305 40 25 -14 47 -25 50 -25 2 0 3 34 1 77
l-3 76 -39 14 c-52 18 -160 24 -214 13z"/>
<path d="M6120 665 l0 -405 65 0 c45 0 65 4 65 13 1 6 1 67 1 135 l0 122 47 0
47 -1 98 -134 98 -135 76 0 75 0 -24 33 c-129 172 -191 261 -182 264 20 7 73
50 93 74 34 44 54 124 48 195 -9 121 -81 210 -187 233 -28 6 -112 11 -185 11
l-135 0 0 -405z m320 267 c94 -46 93 -213 -1 -264 -24 -13 -55 -18 -111 -18
l-77 0 0 150 0 150 77 0 c53 0 88 -5 112 -18z"/>
<path d="M2316 1022 c-3 -6 -1 -14 5 -17 15 -10 25 3 12 16 -7 7 -13 7 -17 1z"/>
<path d="M2469 812 c-72 -81 -137 -160 -145 -175 l-15 -28 28 15 c20 10 243
198 321 271 2 1 -11 16 -28 33 l-31 31 -130 -147z"/>
<path d="M2234 915 c-7 -18 3 -35 21 -35 15 0 28 27 19 41 -8 14 -34 11 -40
-6z"/>
<path d="M2742 697 c-15 -17 1 -42 23 -33 18 6 17 37 -1 43 -6 2 -16 -2 -22
-10z"/>
<path d="M2660 580 c0 -5 5 -10 10 -10 6 0 10 5 10 10 0 6 -4 10 -10 10 -5 0
-10 -4 -10 -10z"/>
<path d="M2452 571 c2 -7 7 -12 11 -12 12 1 9 15 -3 20 -7 2 -11 -2 -8 -8z"/>
</g>
</svg>
